<svg width="322" height="52" viewBox="0 0 322 52" fill="none" xmlns="http://www.w3.org/2000/svg">
<rect x="0.5" y="0.5" width="321" height="51" rx="9.5" stroke="#AEAEC0"/>
<path d="M87.8519 23V22.2891L91.2015 18.666C92.473 17.2852 92.9926 16.5879 93.0062 15.6582C92.9926 14.5645 92.1039 13.8262 90.9281 13.8262C89.6703 13.8262 88.8637 14.6465 88.8637 15.8086H87.934C87.934 14.1406 89.2191 12.9648 90.9555 12.9648C92.6781 12.9648 93.9086 14.1406 93.9086 15.6582C93.9086 16.7656 93.4027 17.5996 91.6937 19.4043L89.2328 22.0566V22.125H94.2094V23H87.8519ZM96.848 23.0684C96.4379 23.0684 96.1097 22.7402 96.1097 22.3438C96.1097 21.9336 96.4379 21.6055 96.848 21.6055C97.2445 21.6055 97.5726 21.9336 97.5726 22.3438C97.5726 22.7402 97.2445 23.0684 96.848 23.0684ZM114.776 18.9668V19.7051H109.649V24.0664H108.815V19.7051H103.743V18.9668H114.776ZM109.239 12.5137C111.755 12.5137 113.437 13.5254 113.437 15.1387C113.437 16.7383 111.755 17.75 109.239 17.75C106.724 17.75 105.042 16.7383 105.042 15.1387C105.042 13.5254 106.724 12.5137 109.239 12.5137ZM109.239 13.2246C107.271 13.2246 105.917 13.9902 105.917 15.1387C105.917 16.2871 107.271 17.0391 109.239 17.0391C111.194 17.0391 112.562 16.2871 112.562 15.1387C112.562 13.9902 111.194 13.2246 109.239 13.2246ZM126.876 18.9258V19.6504H123.868V24.0664H123.007V19.6504H119.698V24.0664H118.81V19.6504H115.843V18.9258H126.876ZM121.339 12.5137C123.854 12.5137 125.536 13.5254 125.536 15.125C125.536 16.7109 123.854 17.709 121.339 17.709C118.823 17.709 117.142 16.7109 117.142 15.125C117.142 13.5254 118.823 12.5137 121.339 12.5137ZM121.339 13.2246C119.37 13.2246 118.017 13.9902 118.017 15.125C118.017 16.2598 119.37 16.998 121.339 16.998C123.294 16.998 124.661 16.2598 124.661 15.125C124.661 13.9902 123.294 13.2246 121.339 13.2246ZM134.833 23.1367C133.097 23.1367 131.798 22.043 131.757 20.5117H132.7C132.755 21.5234 133.657 22.2754 134.833 22.2754C136.214 22.2754 137.212 21.2363 137.198 19.8828C137.198 18.4609 136.146 17.4766 134.765 17.4629C133.931 17.4629 133.247 17.7363 132.851 18.3789H131.88L132.563 13.1016H137.718V13.9766H133.384L132.96 17.2441H133.042C133.479 16.834 134.19 16.5879 134.929 16.5879C136.747 16.5879 138.155 17.9414 138.155 19.8691C138.155 21.7559 136.761 23.1367 134.833 23.1367ZM145.415 13.8398C145.415 16 148.04 17.832 149.94 18.1875L149.517 18.9258C147.814 18.502 145.743 17.1826 144.978 15.3301C144.212 17.1826 142.141 18.502 140.438 18.9258L140.028 18.1875C141.929 17.8184 144.513 16.0137 144.526 13.8398V12.8828H145.415V13.8398ZM150.556 21.6465V22.3711H139.509V21.6465H150.556ZM161.521 12.5957V13.3203H159.579V16.3555H161.493V17.0664H152.675V16.3555H154.603V13.3203H152.661V12.5957H161.521ZM162.628 18.4473V19.1855H157.597V21.6328H156.749V19.1855H151.595V18.4473H162.628ZM161.397 23.0547V23.7793H153.044V20.416H153.905V23.0547H161.397ZM155.464 16.3555H158.718V13.3203H155.464V16.3555ZM165.472 22.166L164.474 25.707H163.667L164.433 22.166H165.472ZM181.618 21.7012V22.4395H170.571V21.7012H175.616V18.6797H176.464V21.7012H181.618ZM176.478 13.8125C176.478 15.9316 179.13 17.6816 181.03 18.0234L180.634 18.748C178.904 18.3652 176.806 17.0938 176.04 15.2754C175.268 17.0938 173.176 18.3652 171.46 18.748L171.063 18.0234C172.964 17.6816 175.575 15.9453 175.589 13.8125V12.8555H176.478V13.8125ZM192.228 12.6777V13.5527C192.228 14.4893 192.228 15.6172 191.886 17.1621H193.718V17.8867H182.671V17.1621H191.011C191.366 15.6035 191.366 14.4893 191.366 13.5527V13.4023H184.093V12.6777H192.228ZM192.296 19.6641V23.8887H184.052V19.6641H192.296ZM184.899 20.3613V23.1777H191.448V20.3613H184.899ZM207.54 12.0078V16.082H209.399V16.8203H207.54V21.0586H206.679V12.0078H207.54ZM205.38 13.5527V14.2773H198.188V13.5527H201.36V12.0215H202.208V13.5527H205.38ZM201.784 15.0156C203.493 15.0156 204.655 15.8906 204.655 17.2441C204.655 18.5977 203.493 19.459 201.784 19.459C200.048 19.459 198.899 18.5977 198.899 17.2441C198.899 15.8906 200.048 15.0156 201.784 15.0156ZM201.784 15.7129C200.54 15.7129 199.706 16.3281 199.72 17.2441C199.706 18.1465 200.54 18.7617 201.784 18.748C203.015 18.7617 203.835 18.1465 203.849 17.2441C203.835 16.3281 203.015 15.7129 201.784 15.7129ZM208.128 23.0547V23.7793H200.075V20.3203H200.923V23.0547H208.128ZM218.231 13.2793V13.6484C218.231 14.5098 218.231 16.4785 217.452 19.5L216.577 19.3633C217.288 16.8545 217.37 15.043 217.397 14.0176H214.499V13.2793H218.231ZM224.616 21.4961V22.2344H213.624V21.4961H218.942V17.5176H219.804V21.4961H224.616ZM223.304 13.2793V14.1406C223.304 15.3574 223.304 16.998 222.798 19.4727L221.937 19.3633C222.456 17.0117 222.456 15.3438 222.456 14.1406V14.0176H219.243V13.2793H223.304ZM229.948 14.0449C229.948 15.6992 231.384 17.1074 233.12 17.6543L232.683 18.3379C231.261 17.873 230.051 16.8545 229.524 15.5215C229.012 16.9365 227.802 18.0303 226.353 18.543L225.915 17.8594C227.665 17.2715 229.073 15.7812 229.087 14.0449V13.5801H226.161V12.8555H232.847V13.5801H229.948V14.0449ZM235.636 12.0078V18.5293H234.774V12.0078H235.636ZM228.759 19.1445V20.7168H234.788V19.1445H235.636V23.8887H227.911V19.1445H228.759ZM228.759 23.1777H234.788V21.4277H228.759V23.1777ZM239.587 22.166L238.589 25.707H237.782L238.548 22.166H239.587ZM112.548 30.0078V36.2695H111.687V33.084H108.87V32.3594H111.687V30.0078H112.548ZM112.548 36.9258V39.6738H105.671V41.1777H113.04V41.8887H104.837V38.9902H111.7V37.6367H104.796V36.9258H112.548ZM106.573 31.6074C106.573 33.248 107.954 34.7109 109.663 35.2852L109.185 35.9688C107.852 35.4766 106.71 34.4785 106.19 33.1934C105.678 34.6426 104.529 35.7432 103.101 36.2832L102.622 35.5859C104.372 34.9707 105.739 33.4395 105.753 31.6074V30.377H106.573V31.6074ZM124.101 30.0078V33.2344H125.96V33.959H124.101V37.459H123.239V30.0078H124.101ZM120.286 37.7871C122.747 37.7871 124.224 38.5527 124.224 39.9062C124.224 41.2598 122.747 42.0254 120.286 42.0254C117.812 42.0254 116.308 41.2598 116.321 39.9062C116.308 38.5527 117.812 37.7871 120.286 37.7871ZM120.286 38.4844C118.358 38.4844 117.169 39.0312 117.169 39.9062C117.169 40.7949 118.358 41.3418 120.286 41.3418C122.173 41.3418 123.376 40.7949 123.376 39.9062C123.376 39.0312 122.173 38.4844 120.286 38.4844ZM116.198 35.832C118.659 35.8457 120.013 35.791 121.653 35.5039L121.749 36.2148C120.067 36.5156 118.7 36.5703 116.198 36.5566H115.31V30.8828H120.806V31.5938H116.171V33.3164H120.601V34.0273H116.171V35.832H116.198ZM139.577 30.0078V33.7402H141.437V34.4785H139.577V38.8535H138.716V30.0078H139.577ZM140.165 41.0547V41.7793H132.112V38.0195H132.96V41.0547H140.165ZM131.593 30.8828V33.002H135.448V30.8828H136.296V36.7891H130.745V30.8828H131.593ZM131.593 36.0781H135.448V33.6992H131.593V36.0781ZM148.19 31.8398C148.19 34 150.815 35.832 152.716 36.1875L152.292 36.9258C150.59 36.502 148.519 35.1826 147.753 33.3301C146.987 35.1826 144.916 36.502 143.214 36.9258L142.804 36.1875C144.704 35.8184 147.288 34.0137 147.302 31.8398V30.8828H148.19V31.8398ZM153.331 39.6465V40.3711H142.284V39.6465H153.331ZM164.296 30.5957V31.3203H162.354V34.3555H164.269V35.0664H155.45V34.3555H157.378V31.3203H155.437V30.5957H164.296ZM165.403 36.4473V37.1855H160.372V39.6328H159.524V37.1855H154.37V36.4473H165.403ZM164.173 41.0547V41.7793H155.819V38.416H156.681V41.0547H164.173ZM158.239 34.3555H161.493V31.3203H158.239V34.3555ZM171.966 30.2266C174.618 30.2266 176.19 30.9648 176.19 32.3184C176.19 33.6855 174.618 34.4375 171.966 34.4375C169.313 34.4375 167.741 33.6855 167.741 32.3184C167.741 30.9648 169.313 30.2266 171.966 30.2266ZM171.966 30.8965C169.901 30.8965 168.63 31.4434 168.63 32.3184C168.63 33.2344 169.901 33.7676 171.966 33.7676C174.044 33.7676 175.315 33.2344 175.315 32.3184C175.315 31.4434 174.044 30.8965 171.966 30.8965ZM177.476 35.3398V36.0508H166.483V35.3398H177.476ZM176.026 37.1992V39.7832H168.712V41.2051H176.409V41.916H167.878V39.1133H175.192V37.8828H167.837V37.1992H176.026ZM183.546 30.582V34.6699H183.587C185.597 34.6699 187.196 34.5742 188.987 34.2051L189.11 34.9434C187.251 35.2988 185.651 35.4219 183.587 35.4082H182.671V30.582H183.546ZM191.899 30.0078V36.5156H191.038V32.6875H187.374V31.9766H191.038V30.0078H191.899ZM192.214 37.2129V37.9238H183.71V37.2129H187.538V35.9414H188.399V37.2129H192.214ZM187.962 38.4844C190.054 38.498 191.325 39.127 191.339 40.2617C191.325 41.3965 190.054 42.0254 187.962 42.0254C185.87 42.0254 184.585 41.3965 184.585 40.2617C184.585 39.127 185.87 38.498 187.962 38.4844ZM187.962 39.1543C186.417 39.1543 185.433 39.5645 185.446 40.2617C185.433 40.9453 186.417 41.3828 187.962 41.3691C189.507 41.3828 190.464 40.9453 190.464 40.2617C190.464 39.5645 189.507 39.1543 187.962 39.1543ZM197.272 30.9648C198.92 30.9648 200.096 32.4072 200.239 34.6973H203.151V30.0078H203.999V42.0801H203.151V35.4082H200.253C200.15 37.7939 198.961 39.3047 197.272 39.3047C195.509 39.3047 194.278 37.6777 194.292 35.1348C194.278 32.5918 195.509 30.9648 197.272 30.9648ZM197.272 31.7305C195.987 31.7305 195.112 33.125 195.112 35.1348C195.112 37.1582 195.987 38.5391 197.272 38.5391C198.544 38.5391 199.433 37.1582 199.433 35.1348C199.433 33.125 198.544 31.7305 197.272 31.7305ZM212.12 31.7031C212.12 33.4395 214.526 34.8203 216.454 35.1211L216.126 35.8047C214.342 35.4766 212.373 34.4512 211.655 32.9336C210.924 34.4512 208.948 35.4766 207.198 35.8047L206.856 35.1211C208.771 34.8203 211.177 33.4395 211.177 31.7031V31.5117H207.212V30.8008H216.071V31.5117H212.12V31.7031ZM217.151 36.9395V37.6777H212.052V42.0527H211.218V37.6777H206.159V36.9395H217.151ZM221.745 33.5625C221.745 35.4629 222.812 37.5547 224.397 38.4707L223.878 39.1406C222.688 38.4229 221.779 37.0693 221.349 35.5449C220.911 37.2061 219.94 38.6416 218.724 39.3867L218.149 38.7441C219.776 37.8145 220.911 35.668 220.925 33.5898V31.1699H221.745V33.5625ZM228.554 30.0078V42.0664H227.72V30.0078H228.554ZM226.065 30.2812V41.4375H225.245V35.1621H223.044V34.4102H225.245V30.2812H226.065ZM241.405 39.7285V40.4668H230.358V39.7285H233.175V36.3789C232.115 35.8457 231.479 34.9775 231.479 33.8906C231.479 32.0312 233.284 30.8281 235.841 30.8145C238.411 30.8281 240.216 32.0312 240.216 33.8906C240.216 34.9639 239.594 35.8252 238.562 36.3516V39.7285H241.405ZM235.841 31.5391C233.79 31.5254 232.3 32.4824 232.3 33.8906C232.3 35.2715 233.79 36.2422 235.841 36.2285C237.892 36.2422 239.396 35.2715 239.396 33.8906C239.396 32.4824 237.892 31.5254 235.841 31.5391ZM234.022 39.7285H237.7V36.6797C237.146 36.8438 236.518 36.9258 235.841 36.9258C235.178 36.9258 234.562 36.8438 234.022 36.6934V39.7285Z" fill="black"/>
</svg>
