<svg width="322" height="52" viewBox="0 0 322 52" fill="none" xmlns="http://www.w3.org/2000/svg">
<rect x="0.5" y="0.5" width="321" height="51" rx="9.5" stroke="#AEAEC0"/>
<path d="M46.9047 28.8945V28.1016L51.4164 21.1016H52.5922V28.0332H53.9457V28.8945H52.5922V31H51.6625V28.8945H46.9047ZM47.9847 28.0332H51.6625V22.4004H51.5668L47.9847 27.9648V28.0332ZM56.2972 31.0684C55.8871 31.0684 55.559 30.7402 55.559 30.3438C55.559 29.9336 55.8871 29.6055 56.2972 29.6055C56.6937 29.6055 57.0219 29.9336 57.0219 30.3438C57.0219 30.7402 56.6937 31.0684 56.2972 31.0684ZM66.7061 31.1367C64.9697 31.1367 63.6709 30.043 63.6299 28.5117H64.5732C64.6279 29.5234 65.5303 30.2754 66.7061 30.2754C68.0869 30.2754 69.085 29.2363 69.0713 27.8828C69.0713 26.4609 68.0186 25.4766 66.6377 25.4629C65.8037 25.4629 65.1201 25.7363 64.7236 26.3789H63.7529L64.4365 21.1016H69.5908V21.9766H65.2568L64.833 25.2441H64.915C65.3525 24.834 66.0635 24.5879 66.8018 24.5879C68.6201 24.5879 70.0283 25.9414 70.0283 27.8691C70.0283 29.7559 68.6338 31.1367 66.7061 31.1367ZM82.4014 26.4473V27.1719H77.3701V29.6602H76.5225V27.1719H71.3682V26.4473H82.4014ZM81.1709 31.0547V31.7793H72.8174V28.498H73.6787V31.0547H81.1709ZM73.7197 20.3906V22.0312H80.0635V20.3906H80.9248V25.1621H72.8584V20.3906H73.7197ZM73.7197 24.4375H80.0635V22.7148H73.7197V24.4375ZM97.8506 26.0508V26.7617H86.8584V26.0508H91.9307V24.5195H88.2666V20.582H96.4697V21.2793H89.1143V23.7949H96.5518V24.5195H92.7646V26.0508H97.8506ZM92.3545 27.7324C94.9248 27.7324 96.4834 28.5117 96.4834 29.8789C96.4834 31.2734 94.9248 32.0391 92.3545 32.0527C89.7568 32.0391 88.1982 31.2734 88.1982 29.8789C88.1982 28.5117 89.7568 27.7324 92.3545 27.7324ZM92.3545 28.416C90.3311 28.4297 89.0732 28.9766 89.0732 29.8789C89.0732 30.7949 90.3311 31.3418 92.3545 31.3418C94.3506 31.3418 95.6221 30.7949 95.6221 29.8789C95.6221 28.9766 94.3506 28.4297 92.3545 28.416ZM108.351 19.9941V23.7402H110.21V24.4785H108.351V28.9355H107.489V19.9941H108.351ZM108.938 31.0547V31.7793H100.886V28.0059H101.733V31.0547H108.938ZM102.362 20.8828C104.14 20.8828 105.466 22.0859 105.479 23.8086C105.466 25.5449 104.14 26.7617 102.362 26.7617C100.571 26.7617 99.2314 25.5449 99.2314 23.8086C99.2314 22.0859 100.571 20.8828 102.362 20.8828ZM102.362 21.6348C101.063 21.6348 100.065 22.5645 100.079 23.8086C100.065 25.0664 101.063 25.9961 102.362 25.9961C103.661 25.9961 104.632 25.0664 104.646 23.8086C104.632 22.5645 103.661 21.6348 102.362 21.6348ZM123.827 20.0078V23.0566H125.687V23.7812H123.827V26.8848H122.966V20.0078H123.827ZM124.169 27.5684V28.293H122.405V31.1504H124.319V31.875H116.048V31.1504H117.935V28.293H116.144V27.5684H124.169ZM117.839 20.7324C119.657 20.7324 120.942 21.8672 120.956 23.5352C120.942 25.2031 119.657 26.3242 117.839 26.3242C116.021 26.3242 114.708 25.2031 114.708 23.5352C114.708 21.8672 116.021 20.7324 117.839 20.7324ZM117.839 21.4707C116.513 21.457 115.542 22.332 115.556 23.5352C115.542 24.7383 116.513 25.5996 117.839 25.6133C119.151 25.5996 120.108 24.7383 120.122 23.5352C120.108 22.332 119.151 21.457 117.839 21.4707ZM118.769 31.1504H121.571V28.293H118.769V31.1504ZM136.419 20.0078V32.0801H135.571V20.0078H136.419ZM126.466 26.625C128.913 26.6113 131.948 26.584 134.642 26.2969L134.696 26.9668C133.479 27.124 132.222 27.2197 130.991 27.2812V31.6836H130.13V27.3223C128.879 27.3633 127.669 27.377 126.589 27.377L126.466 26.625ZM133.657 24.2461V24.9844H127.642V20.7051H133.493V21.416H128.517V24.2461H133.657ZM149.681 29.7832V30.5215H138.634V29.7832H143.692V27.3496H140.056V23.7402H147.397V21.6621H140.015V20.9375H148.245V24.4648H140.903V26.625H148.532V27.3496H144.554V29.7832H149.681ZM163.79 20.541V20.9922C163.79 21.6895 163.79 22.9473 163.448 24.6426L162.614 24.5605C162.901 23.0293 162.936 21.9492 162.956 21.252H159.771V20.541H163.79ZM165.103 25.5996V26.3516H154.11V25.5996H159.429V23.207H160.276V25.5996H165.103ZM158.745 20.541V20.9238C158.731 21.5664 158.731 22.8789 158.198 24.6426L157.378 24.5332C157.822 23.0156 157.884 21.9355 157.897 21.252H155.095V20.541H158.745ZM163.722 27.7871V31.8887H155.491V27.7871H163.722ZM156.339 28.4707V31.1777H162.874V28.4707H156.339ZM175.89 20.541V20.9922C175.89 21.6895 175.89 22.9473 175.548 24.6426L174.714 24.5605C175.001 23.0293 175.035 21.9492 175.056 21.252H171.87V20.541H175.89ZM177.202 25.5996V26.3516H166.21V25.5996H171.528V23.207H172.376V25.5996H177.202ZM170.845 20.541V20.9238C170.831 21.5664 170.831 22.8789 170.298 24.6426L169.478 24.5332C169.922 23.0156 169.983 21.9355 169.997 21.252H167.194V20.541H170.845ZM175.821 27.7871V31.8887H167.591V27.7871H175.821ZM168.438 28.4707V31.1777H174.974V28.4707H168.438ZM188.208 20.0078V32.0664H187.347V20.0078H188.208ZM185.911 22.0039V22.7285H178.583V22.0039H181.81V20.1035H182.671V22.0039H185.911ZM182.274 23.8223C183.997 23.8223 185.228 24.9434 185.228 26.5566C185.228 28.1699 183.997 29.291 182.274 29.291C180.538 29.291 179.308 28.1699 179.308 26.5566C179.308 24.9434 180.538 23.8223 182.274 23.8223ZM182.274 24.5469C181.03 24.5605 180.128 25.4082 180.128 26.5566C180.128 27.7051 181.03 28.5527 182.274 28.5391C183.505 28.5527 184.407 27.7051 184.407 26.5566C184.407 25.4082 183.505 24.5605 182.274 24.5469ZM196.083 27.9648V29.168H202.468V27.9648H203.343V31.8887H195.222V27.9648H196.083ZM196.083 31.2051H202.468V29.8516H196.083V31.2051ZM204.122 21.0469V21.7441H194.374V21.0469H198.858V19.7891H199.706V21.0469H204.122ZM199.269 22.2637C201.743 22.2773 203.138 22.8516 203.138 23.959C203.138 25.0664 201.743 25.6406 199.269 25.6406C196.794 25.6406 195.399 25.0664 195.399 23.959C195.399 22.8516 196.794 22.2773 199.269 22.2637ZM199.269 22.8926C197.409 22.9062 196.315 23.2891 196.329 23.959C196.315 24.6426 197.409 25.0254 199.269 25.0254C201.128 25.0254 202.235 24.6426 202.235 23.959C202.235 23.2891 201.128 22.9062 199.269 22.8926ZM204.778 26.502V27.2129H193.786V26.502H204.778ZM211.833 21.1836C211.833 22.9746 214.294 24.4102 216.276 24.7109L215.921 25.4219C214.144 25.1006 212.147 24.0479 211.396 22.4961C210.644 24.0615 208.647 25.0938 206.87 25.4219L206.501 24.7109C208.497 24.4102 210.944 23.0156 210.944 21.1836V20.459H211.833V21.1836ZM216.878 26.8711V27.6094H211.778V32.0664H210.944V27.6094H205.886V26.8711H216.878ZM222.142 23.4121C222.128 25.5996 223.782 27.8145 225.478 28.6074L224.944 29.291C223.584 28.6074 222.285 27.1104 221.718 25.3262C221.164 27.1992 219.879 28.792 218.505 29.5098L217.944 28.7852C219.64 27.9785 221.28 25.6816 221.28 23.4121V21.0879H222.142V23.4121ZM227.884 20.0078V32.0801H227.022V20.0078H227.884ZM236.196 21.293C236.196 22.0244 236.135 22.749 236.005 23.4531H239.163V19.9805H240.011V32.0527H239.163V27.3633H235.663V26.6523H239.163V24.1777H235.827C235.185 26.4609 233.646 28.5186 230.632 30.0156L230.14 29.3457C232.443 28.2041 233.872 26.7207 234.638 25.0117L230.345 25.4082L230.153 24.6426L234.911 24.3145C235.157 23.5898 235.294 22.8174 235.349 22.0176H230.769V21.293H236.196ZM251.522 21.7031C251.522 23.4395 253.929 24.8203 255.856 25.1211L255.528 25.8047C253.744 25.4766 251.775 24.4512 251.058 22.9336C250.326 24.4512 248.351 25.4766 246.601 25.8047L246.259 25.1211C248.173 24.8203 250.579 23.4395 250.579 21.7031V21.5117H246.614V20.8008H255.474V21.5117H251.522V21.7031ZM256.554 26.9395V27.6777H251.454V32.0527H250.62V27.6777H245.562V26.9395H256.554ZM261.147 23.5625C261.147 25.4629 262.214 27.5547 263.8 28.4707L263.28 29.1406C262.091 28.4229 261.182 27.0693 260.751 25.5449C260.313 27.2061 259.343 28.6416 258.126 29.3867L257.552 28.7441C259.179 27.8145 260.313 25.668 260.327 23.5898V21.1699H261.147V23.5625ZM267.956 20.0078V32.0664H267.122V20.0078H267.956ZM265.468 20.2812V31.4375H264.647V25.1621H262.446V24.4102H264.647V20.2812H265.468ZM280.808 29.7285V30.4668H269.761V29.7285H272.577V26.3789C271.518 25.8457 270.882 24.9775 270.882 23.8906C270.882 22.0312 272.687 20.8281 275.243 20.8145C277.813 20.8281 279.618 22.0312 279.618 23.8906C279.618 24.9639 278.996 25.8252 277.964 26.3516V29.7285H280.808ZM275.243 21.5391C273.192 21.5254 271.702 22.4824 271.702 23.8906C271.702 25.2715 273.192 26.2422 275.243 26.2285C277.294 26.2422 278.798 25.2715 278.798 23.8906C278.798 22.4824 277.294 21.5254 275.243 21.5391ZM273.425 29.7285H277.103V26.6797C276.549 26.8438 275.92 26.9258 275.243 26.9258C274.58 26.9258 273.965 26.8438 273.425 26.6934V29.7285Z" fill="black"/>
</svg>
