<svg width="322" height="52" viewBox="0 0 322 52" fill="none" xmlns="http://www.w3.org/2000/svg">
<rect x="0.5" y="0.5" width="321" height="51" rx="9.5" stroke="#AEAEC0"/>
<path d="M100.102 21.1016V31H99.1176V22.1133H99.0629L96.725 23.6582V22.6602L99.0902 21.1016H100.102ZM104.846 31.0684C104.436 31.0684 104.108 30.7402 104.108 30.3438C104.108 29.9336 104.436 29.6055 104.846 29.6055C105.243 29.6055 105.571 29.9336 105.571 30.3438C105.571 30.7402 105.243 31.0684 104.846 31.0684ZM122.036 20.0078V32.0664H121.202V20.0078H122.036ZM119.616 20.3496V31.4238H118.782V27.1719H116.376V26.4473H118.782V24.1367H116.581C115.979 26.2012 114.619 28.0537 112.329 29.4277L111.81 28.7988C114.489 27.1992 115.884 24.8682 116.089 22.3047H112.288V21.5664H116.923C116.923 22.1885 116.868 22.8105 116.745 23.4121H118.782V20.3496H119.616ZM133.247 20.0078V23.7949H135.12V24.5332H133.247V28.8945H132.386V20.0078H133.247ZM133.849 31.0547V31.7793H125.864V28.2109H126.739V31.0547H133.849ZM125.345 26.2422C127.478 26.2559 129.091 26.1602 131.073 25.832L131.155 26.5703C129.146 26.8984 127.519 26.9668 125.345 26.9668H124.415V23.4531H128.981V21.5527H124.388V20.8145H129.829V24.1504H125.276V26.2422H125.345ZM142.927 21.1016V31H141.942V22.1133H141.888L139.55 23.6582V22.6602L141.915 21.1016H142.927ZM155.505 20.0078V32.0664H154.657V25.6953H152.784V31.4375H151.964V20.3359H152.784V24.9707H154.657V20.0078H155.505ZM150.405 21.5938C150.405 24.5742 149.298 27.5137 145.812 29.4414L145.292 28.8125C148.238 27.2129 149.414 24.8477 149.571 22.3184H145.716V21.5938H150.405ZM168.356 25.668V26.3652H157.323V25.668H168.356ZM166.962 27.459V29.9336H159.552V31.2324H167.372V31.8887H158.704V29.291H166.101V28.1289H158.677V27.459H166.962ZM166.921 20.418V22.7969H159.62V23.9863H167.126V24.6426H158.772V22.1816H166.06V21.0605H158.731V20.418H166.921ZM182.726 20.3359V21.0332H180.784V23.5762H182.698V24.2734H173.88V23.5762H175.808V21.0332H173.866V20.3359H182.726ZM183.806 25.3809V26.1055H178.733V27.4043H182.356V29.9199H175.042V31.2188H182.739V31.916H174.208V29.2637H181.522V28.0879H174.167V27.4043H177.872V26.1055H172.813V25.3809H183.806ZM176.669 23.5762H179.923V21.0332H176.669V23.5762ZM188.126 20.9648C189.773 20.9648 190.949 22.4072 191.093 24.6973H194.005V20.0078H194.853V32.0801H194.005V25.4082H191.106C191.004 27.7939 189.814 29.3047 188.126 29.3047C186.362 29.3047 185.132 27.6777 185.146 25.1348C185.132 22.5918 186.362 20.9648 188.126 20.9648ZM188.126 21.7305C186.841 21.7305 185.966 23.125 185.966 25.1348C185.966 27.1582 186.841 28.5391 188.126 28.5391C189.397 28.5391 190.286 27.1582 190.286 25.1348C190.286 23.125 189.397 21.7305 188.126 21.7305ZM202.974 21.7031C202.974 23.4395 205.38 24.8203 207.308 25.1211L206.979 25.8047C205.195 25.4766 203.227 24.4512 202.509 22.9336C201.777 24.4512 199.802 25.4766 198.052 25.8047L197.71 25.1211C199.624 24.8203 202.03 23.4395 202.03 21.7031V21.5117H198.065V20.8008H206.925V21.5117H202.974V21.7031ZM208.005 26.9395V27.6777H202.905V32.0527H202.071V27.6777H197.013V26.9395H208.005ZM212.599 23.5625C212.599 25.4629 213.665 27.5547 215.251 28.4707L214.731 29.1406C213.542 28.4229 212.633 27.0693 212.202 25.5449C211.765 27.2061 210.794 28.6416 209.577 29.3867L209.003 28.7441C210.63 27.8145 211.765 25.668 211.778 23.5898V21.1699H212.599V23.5625ZM219.407 20.0078V32.0664H218.573V20.0078H219.407ZM216.919 20.2812V31.4375H216.099V25.1621H213.897V24.4102H216.099V20.2812H216.919ZM232.259 29.7285V30.4668H221.212V29.7285H224.028V26.3789C222.969 25.8457 222.333 24.9775 222.333 23.8906C222.333 22.0312 224.138 20.8281 226.694 20.8145C229.265 20.8281 231.069 22.0312 231.069 23.8906C231.069 24.9639 230.447 25.8252 229.415 26.3516V29.7285H232.259ZM226.694 21.5391C224.644 21.5254 223.153 22.4824 223.153 23.8906C223.153 25.2715 224.644 26.2422 226.694 26.2285C228.745 26.2422 230.249 25.2715 230.249 23.8906C230.249 22.4824 228.745 21.5254 226.694 21.5391ZM224.876 29.7285H228.554V26.6797C228 26.8438 227.371 26.9258 226.694 26.9258C226.031 26.9258 225.416 26.8438 224.876 26.6934V29.7285Z" fill="black"/>
</svg>
