<svg width="322" height="52" viewBox="0 0 322 52" fill="none" xmlns="http://www.w3.org/2000/svg">
<rect x="0.5" y="0.5" width="321" height="51" rx="9.5" stroke="#AEAEC0"/>
<path d="M67.8627 31.1367C65.9623 31.1367 64.5814 30.0703 64.5267 28.5117H65.5111C65.5658 29.5645 66.5775 30.2617 67.849 30.2617C69.2435 30.2617 70.2279 29.4551 70.2416 28.334C70.2279 27.1719 69.2572 26.3516 67.6576 26.3516H67.0424V25.4766H67.6576C68.9564 25.4766 69.8861 24.752 69.8998 23.6309C69.8861 22.5645 69.0931 21.8262 67.8763 21.8262C66.7142 21.8262 65.7299 22.5098 65.7025 23.5762H64.7592C64.8002 22.0312 66.1674 20.9648 67.89 20.9648C69.6947 20.9648 70.8431 22.1543 70.8295 23.5898C70.8431 24.7246 70.1596 25.5586 69.0931 25.8594V25.9277C70.392 26.1602 71.1986 27.0762 71.1849 28.3477C71.1986 29.9473 69.7767 31.1367 67.8627 31.1367ZM73.6732 31.0684C73.2631 31.0684 72.9349 30.7402 72.9349 30.3438C72.9349 29.9336 73.2631 29.6055 73.6732 29.6055C74.0697 29.6055 74.3978 29.9336 74.3978 30.3438C74.3978 30.7402 74.0697 31.0684 73.6732 31.0684ZM90.8633 20.0078V32.0664H90.0293V20.0078H90.8633ZM88.4434 20.3496V31.4238H87.6094V27.1719H85.2031V26.4473H87.6094V24.1367H85.4082C84.8066 26.2012 83.4463 28.0537 81.1562 29.4277L80.6367 28.7988C83.3164 27.1992 84.7109 24.8682 84.916 22.3047H81.1152V21.5664H85.75C85.75 22.1885 85.6953 22.8105 85.5723 23.4121H87.6094V20.3496H88.4434ZM102.074 20.0078V23.7949H103.947V24.5332H102.074V28.8945H101.213V20.0078H102.074ZM102.676 31.0547V31.7793H94.6914V28.2109H95.5664V31.0547H102.676ZM94.1719 26.2422C96.3047 26.2559 97.918 26.1602 99.9004 25.832L99.9824 26.5703C97.9727 26.8984 96.3457 26.9668 94.1719 26.9668H93.2422V23.4531H97.8086V21.5527H93.2148V20.8145H98.6562V24.1504H94.1035V26.2422H94.1719ZM119.15 25.2031V25.9141H114.078V27.2402H117.701V29.8105H110.387V31.2051H118.084V31.916H109.553V29.1543H116.867V27.9238H109.512V27.2402H113.217V25.9141H108.158V25.2031H119.15ZM117.715 20.418V24.0547H109.607V20.418H117.715ZM110.455 21.1289V23.3438H116.854V21.1289H110.455ZM130.553 20.0078V32.0664H129.719V20.0078H130.553ZM128.16 20.2812V31.4375H127.326V25.5176H125.59C125.487 27.8555 124.482 29.332 122.992 29.332C121.434 29.332 120.422 27.7188 120.422 25.2031C120.422 22.6738 121.434 21.0742 122.992 21.0742C124.462 21.0742 125.46 22.4961 125.576 24.7793H127.326V20.2812H128.16ZM122.992 21.8809C121.926 21.8809 121.229 23.207 121.242 25.2031C121.229 27.1855 121.926 28.5254 122.992 28.5254C124.072 28.5254 124.77 27.1855 124.77 25.2031C124.77 23.207 124.072 21.8809 122.992 21.8809ZM145.373 20.0078V23.2207H147.014V23.9453H145.373V27.4453H144.539V20.0078H145.373ZM136.896 20.9102V22.9199H138.523V20.9102H139.275V26.4062H136.145V20.9102H136.896ZM136.896 25.6816H138.523V23.6309H136.896V25.6816ZM140.889 20.9102V22.9199H142.529V20.9102H143.268V26.4062H140.137V20.9102H140.889ZM140.889 25.6816H142.529V23.6309H140.889V25.6816ZM141.477 27.6641C143.965 27.6641 145.482 28.4707 145.482 29.8516C145.482 31.2324 143.965 32.0254 141.477 32.0254C138.988 32.0254 137.471 31.2324 137.484 29.8516C137.471 28.4707 138.988 27.6641 141.477 27.6641ZM141.477 28.3613C139.535 28.3613 138.346 28.9219 138.346 29.8516C138.346 30.7539 139.535 31.3281 141.477 31.3281C143.391 31.3281 144.607 30.7539 144.621 29.8516C144.607 28.9219 143.391 28.3613 141.477 28.3613ZM153.316 20.2266C155.969 20.2266 157.541 20.9648 157.541 22.3184C157.541 23.6855 155.969 24.4375 153.316 24.4375C150.664 24.4375 149.092 23.6855 149.092 22.3184C149.092 20.9648 150.664 20.2266 153.316 20.2266ZM153.316 20.8965C151.252 20.8965 149.98 21.4434 149.98 22.3184C149.98 23.2344 151.252 23.7676 153.316 23.7676C155.395 23.7676 156.666 23.2344 156.666 22.3184C156.666 21.4434 155.395 20.8965 153.316 20.8965ZM158.826 25.3398V26.0508H147.834V25.3398H158.826ZM157.377 27.1992V29.7832H150.062V31.2051H157.76V31.916H149.229V29.1133H156.543V27.8828H149.188V27.1992H157.377ZM172.881 20.5137V21.3203C172.867 22.1133 172.867 23.0156 172.635 24.1777L171.773 24.082C172.02 22.9336 172.02 22.0859 172.02 21.3203V21.2246H164.637V20.5137H172.881ZM174.303 24.916V25.627H163.311V24.916H168V22.7012H168.848V24.916H174.303ZM172.922 26.8711V29.6328H165.525V31.1914H173.236V31.9023H164.678V28.9766H172.074V27.5957H164.65V26.8711H172.922ZM184.994 21.2793V22.4961C184.98 23.9727 184.98 25.6133 184.557 27.9922L183.682 27.8828C184.119 25.6133 184.119 23.9453 184.133 22.4961V22.0039H176.6V21.2793H184.994ZM186.402 29.5371V30.2754H175.41V29.5371H179.84V25.1758H180.688V29.5371H186.402ZM197.176 20.5273V23.5078H189.738V25.2441H197.436V25.9824H188.877V22.8105H196.301V21.2383H188.836V20.5273H197.176ZM198.529 27.3633V28.0742H193.43V32.0801H192.568V28.0742H187.496V27.3633H198.529ZM207.061 22.3047C207.061 23.918 208.387 25.4219 210.096 26.0234L209.645 26.707C208.277 26.2012 207.163 25.1621 206.65 23.8633C206.138 25.3125 204.948 26.4541 203.52 27.0078L203.068 26.3242C204.791 25.6953 206.199 24.082 206.199 22.3184V21.6074H203.369V20.8828H209.85V21.6074H207.061V22.3047ZM212.926 27.9238V32.0664H212.064V28.6348H204.873V27.9238H212.926ZM212.926 20.0078V27.2402H212.064V23.9727H209.453V23.248H212.064V20.0078H212.926ZM225.025 20.0078V32.0801H224.164V26.4746H221.348V25.7227H224.164V23.4531H221.348V22.7148H224.164V20.0078H225.025ZM219.215 23.4121C219.215 25.5723 220.787 27.7734 222.455 28.5664L221.936 29.2773C220.568 28.5664 219.331 27.0283 218.805 25.2441C218.265 27.1035 217.034 28.7236 215.688 29.4688L215.127 28.7852C216.795 27.9375 218.34 25.6133 218.354 23.4121V21.0879H219.215V23.4121ZM237.193 20.4453V21.1699H233.215C233.229 22.667 235.532 23.7402 237.521 23.9727L237.193 24.6562C235.32 24.4102 233.331 23.5488 232.682 22.1543C232.019 23.5488 230.043 24.4102 228.17 24.6562L227.842 23.9727C229.817 23.7402 232.135 22.6807 232.148 21.1699H228.197V20.4453H237.193ZM229.482 27.2812V28.7852H235.867V27.2812H236.729V31.8887H228.621V27.2812H229.482ZM229.482 31.1777H235.867V29.4824H229.482V31.1777ZM238.178 25.5176V26.2422H233.105V28.0879H232.244V26.2422H227.186V25.5176H238.178ZM249.156 20.0078V32.0664H248.309V20.0078H249.156ZM240.953 21.1973V28.1426H241.062C242.949 28.1426 244.85 27.9922 246.928 27.5547L247.051 28.3066C244.904 28.7578 243.018 28.9082 241.062 28.9082H240.105V21.1973H240.953ZM260.668 20.0078V24.875H262.746V25.5996H260.668V32.0801H259.807V20.0078H260.668ZM252.861 28.2793C255.158 28.2793 256.717 28.1973 258.549 27.8555L258.672 28.6074C256.771 28.9492 255.199 29.0312 252.861 29.0312H251.932V21.1973H257.551V21.9219H252.793V28.2793H252.861Z" fill="black"/>
</svg>
