<svg width="240" height="170" viewBox="0 0 240 170" fill="none" xmlns="http://www.w3.org/2000/svg">
<g filter="url(#filter0_dd_1_758)">
<rect x="40" y="40" width="160" height="90" rx="30" fill="#F0F0F3"/>
</g>
<path d="M107.25 80.6641C107.227 84.4609 109.828 88.3047 112.898 89.6875L111.773 91.1406C109.406 89.9805 107.355 87.5312 106.359 84.5547C105.387 87.707 103.336 90.332 100.898 91.5625L99.7266 90.0156C102.82 88.5859 105.398 84.625 105.422 80.6641V76.8672H107.25V80.6641ZM117.023 75.0625V95.9453H115.172V75.0625H117.023ZM127.641 78.9297C127.641 81.6953 129.68 84.2266 132.773 85.3047L131.836 86.7344C129.457 85.8906 127.641 84.1797 126.75 82.0234C125.859 84.3906 123.949 86.2305 121.5 87.1328L120.516 85.7031C123.633 84.6016 125.812 81.9062 125.836 78.9297V78.0391H121.078V76.5391H132.328V78.0391H127.641V78.9297ZM136.875 75.0625V80.5703H140.016V82.1406H136.875V87.625H135.047V75.0625H136.875ZM136.875 88.7266V95.8984H135.047V90.2266H123.234V88.7266H136.875Z" fill="#727272"/>
<defs>
<filter id="filter0_dd_1_758" x="0" y="0" width="240" height="170" filterUnits="userSpaceOnUse" color-interpolation-filters="sRGB">
<feFlood flood-opacity="0" result="BackgroundImageFix"/>
<feColorMatrix in="SourceAlpha" type="matrix" values="0 0 0 0 0 0 0 0 0 0 0 0 0 0 0 0 0 0 127 0" result="hardAlpha"/>
<feOffset dx="-10" dy="-10"/>
<feGaussianBlur stdDeviation="15"/>
<feComposite in2="hardAlpha" operator="out"/>
<feColorMatrix type="matrix" values="0 0 0 0 1 0 0 0 0 1 0 0 0 0 1 0 0 0 1 0"/>
<feBlend mode="normal" in2="BackgroundImageFix" result="effect1_dropShadow_1_758"/>
<feColorMatrix in="SourceAlpha" type="matrix" values="0 0 0 0 0 0 0 0 0 0 0 0 0 0 0 0 0 0 127 0" result="hardAlpha"/>
<feOffset dx="10" dy="10"/>
<feGaussianBlur stdDeviation="15"/>
<feComposite in2="hardAlpha" operator="out"/>
<feColorMatrix type="matrix" values="0 0 0 0 0.682353 0 0 0 0 0.682353 0 0 0 0 0.752941 0 0 0 0.4 0"/>
<feBlend mode="normal" in2="effect1_dropShadow_1_758" result="effect2_dropShadow_1_758"/>
<feBlend mode="normal" in="SourceGraphic" in2="effect2_dropShadow_1_758" result="shape"/>
</filter>
</defs>
</svg>
